<svg xmlns="http://www.w3.org/2000/svg" viewBox="0 0 100 100">
  <rect width="100" height="100" rx="15" ry="15" fill="#f0f0f0" />

  <path fill="#d32f2f" d="M15,0 h70 a15,15 0 0 1 15,15 v25 h-100 v-25 a15,15 0 0 1 15,-15 z" />

  <rect x="25" y="10" width="50" height="10" rx="2" fill="rgba(255,255,255,0.9)" />
  <rect x="35" y="25" width="30" height="4" rx="1" fill="rgba(255,255,255,0.7)" />

  <path fill="#ffffff" d="M0,40 h100 v45 a15,15 0 0 1 -15,15 h-70 a15,15 0 0 1 -15,-15 v-45 z" />

  <g transform="translate(14, 52) scale(0.45)" fill="#000000">
  <svg width="162.031" height="74.902" viewBox="0 0 162.031 74.902" xmlns="http://www.w3.org/2000/svg"><g id="svgGroup" stroke-linecap="round" fill-rule="evenodd" font-size="9pt" stroke="#000000" stroke-width="0.25mm" fill="#000000" style="stroke:#000000;stroke-width:0.25mm;fill:#000000"><path d="M 34.525 2.344 L 34.818 3.711 Q 35.013 4.395 35.453 4.639 Q 35.892 4.883 36.185 4.883 Q 37.455 5.176 38.382 5.518 Q 39.31 5.859 40.384 5.957 Q 40.775 6.543 41.117 7.129 Q 41.459 7.715 41.849 8.203 Q 43.802 11.035 45.072 13.672 Q 46.341 16.309 45.072 19.434 L 45.17 20.508 Q 45.658 21.191 45.658 21.777 Q 45.658 22.363 45.462 23.438 Q 45.365 24.219 45.316 25.146 Q 45.267 26.074 45.56 27.148 L 46.244 27.93 Q 47.806 28.711 49.271 28.711 Q 51.224 28.711 52.787 27.832 Q 54.349 26.953 55.716 26.074 Q 56.791 25.293 57.718 24.805 Q 58.646 24.316 59.525 24.121 Q 61.576 22.168 63.285 20.654 Q 64.994 19.141 66.849 17.578 Q 70.365 14.746 73.685 11.475 Q 77.005 8.203 78.959 3.32 Q 80.033 2.637 81.4 2.637 Q 82.767 2.637 84.134 3.174 Q 85.502 3.711 86.869 4.395 Q 87.162 4.59 87.406 4.688 Q 87.65 4.785 87.943 4.98 Q 87.943 6.055 88.822 6.934 Q 89.31 7.324 89.505 7.422 L 89.896 7.617 Q 90.677 8.105 91.214 8.496 Q 91.752 8.887 92.045 9.57 Q 92.923 12.207 94.974 13.672 Q 94.779 14.746 95.072 15.771 Q 95.365 16.797 95.755 17.773 Q 95.951 18.164 96.048 18.506 Q 96.146 18.848 96.341 19.336 L 94.193 19.141 L 94.486 21.289 Q 94.779 22.949 94.242 25 Q 93.705 27.051 93.021 28.223 Q 93.216 31.152 93.216 32.861 Q 93.216 34.57 93.021 36.035 Q 92.826 37.5 92.386 38.818 Q 91.947 40.137 91.263 41.602 Q 91.654 49.023 89.554 55.176 Q 87.455 61.328 85.013 66.699 Q 84.72 67.383 84.427 67.969 Q 84.134 68.555 83.939 69.141 Q 82.865 69.434 81.986 69.824 Q 81.107 70.215 80.326 70.703 Q 79.252 71.387 78.177 71.826 Q 77.103 72.266 75.931 72.266 Q 71.244 68.848 71.097 60.449 Q 70.951 52.051 74.662 39.063 Q 75.345 38.574 75.248 37.598 L 75.248 36.523 L 74.271 36.426 Q 73.783 36.426 73.392 36.523 Q 73.002 36.621 72.806 37.402 Q 69.681 39.648 66.019 42.041 Q 62.357 44.434 58.451 46.436 Q 54.545 48.438 50.492 49.756 Q 46.439 51.074 42.63 51.074 Q 32.865 51.074 27.884 41.113 L 27.005 39.355 L 26.029 40.918 Q 25.736 41.406 25.003 42.822 Q 24.271 44.238 23.539 46.094 Q 22.806 47.949 22.269 49.902 Q 21.732 51.855 21.927 53.32 Q 20.755 54.395 19.632 55.762 Q 18.509 57.129 18.021 58.887 Q 17.826 59.375 17.923 59.814 Q 18.021 60.254 18.216 60.742 Q 18.119 61.426 17.826 61.719 Q 17.533 62.012 17.142 62.305 Q 16.654 62.793 16.166 63.33 Q 15.677 63.867 15.287 64.551 Q 15.091 65.137 14.994 65.771 Q 14.896 66.406 14.798 66.895 Q 14.798 67.969 14.505 68.359 Q 13.529 70.41 12.796 71.729 Q 12.064 73.047 11.38 73.73 Q 10.697 74.414 9.964 74.658 Q 9.232 74.902 8.255 74.902 Q 7.279 74.902 5.228 74.609 Q 3.666 72.949 2.445 70.068 Q 1.224 67.188 0.589 63.916 Q -0.045 60.645 0.003 57.373 Q 0.052 54.102 1.127 51.563 Q 1.127 51.465 2.054 49.219 Q 2.982 46.973 4.447 43.506 Q 5.912 40.039 7.767 35.791 Q 9.623 31.543 11.478 27.441 Q 13.334 23.34 15.043 19.971 Q 16.752 16.602 18.021 14.746 Q 18.9 13.379 19.632 12.109 Q 20.365 10.84 21.048 9.766 Q 22.123 8.008 23.05 6.494 Q 23.978 4.98 25.101 3.76 Q 26.224 2.539 27.591 1.611 Q 28.959 0.684 30.912 0 Q 32.084 0.488 32.962 1.025 Q 33.841 1.563 34.525 2.344 Z M 102.298 70.215 Q 101.517 69.434 101.175 68.359 Q 100.834 67.285 99.564 66.602 Q 99.369 65.137 99.027 63.232 Q 98.685 61.328 98.343 59.326 Q 98.002 57.324 97.855 55.322 Q 97.709 53.32 98.002 51.66 Q 98.197 50.781 98.636 50 Q 99.076 49.219 99.515 48.486 Q 99.955 47.754 100.199 46.973 Q 100.443 46.191 100.248 45.41 Q 100.834 45.313 100.98 44.775 Q 101.127 44.238 101.908 44.434 Q 102.591 42.285 103.373 40.43 Q 104.154 38.574 105.033 36.816 Q 105.912 35.059 106.839 33.252 Q 107.767 31.445 108.548 29.199 Q 106.888 27.637 106.156 25.83 Q 105.423 24.023 105.033 22.168 Q 104.642 20.313 104.447 18.408 Q 104.252 16.504 103.666 14.551 Q 104.837 12.793 106.498 11.67 Q 108.158 10.547 110.16 9.814 Q 112.162 9.082 114.505 8.643 Q 116.849 8.203 119.486 7.617 Q 124.173 6.152 127.884 5.322 Q 131.595 4.492 135.111 3.955 Q 138.627 3.418 142.435 2.979 Q 146.244 2.539 151.224 1.66 Q 151.322 1.953 151.566 1.953 L 152.201 1.953 Q 152.494 2.637 153.275 2.637 Q 153.275 2.344 153.226 2.1 Q 153.177 1.855 153.177 1.66 Q 153.373 1.66 153.714 1.758 Q 154.056 1.855 154.3 1.953 Q 154.545 2.051 154.74 1.904 Q 154.935 1.758 154.837 1.27 Q 156.009 3.32 157.865 4.639 Q 159.72 5.957 161.966 6.934 Q 162.064 7.813 162.015 8.203 Q 161.966 8.594 161.869 8.936 Q 161.771 9.277 161.771 9.717 Q 161.771 10.156 161.966 10.938 Q 160.404 13.574 158.402 15.039 Q 156.4 16.504 154.154 17.285 Q 151.908 18.066 149.418 18.457 Q 146.927 18.848 144.339 19.287 Q 141.752 19.727 139.115 20.508 Q 136.478 21.289 133.939 22.852 Q 133.158 22.559 132.523 22.607 Q 131.888 22.656 131.205 22.852 Q 130.521 23.047 129.691 23.242 Q 128.861 23.438 127.689 23.242 Q 126.908 23.926 125.882 24.219 Q 124.857 24.512 123.783 24.805 Q 124.271 25.879 124.222 26.953 Q 124.173 28.027 124.466 28.809 Q 128.568 29.199 133.548 28.76 Q 138.529 28.32 143.314 28.125 Q 143.412 28.613 143.216 28.809 Q 143.021 29.004 143.021 29.492 Q 143.9 30.078 144.681 30.957 Q 145.462 31.836 146.293 32.666 Q 147.123 33.496 148.002 34.033 Q 148.88 34.57 150.052 34.473 Q 150.541 35.449 150.736 36.523 Q 150.931 37.598 150.443 38.77 Q 148.49 40.039 146.634 41.357 Q 144.779 42.676 142.777 43.75 Q 140.775 44.824 138.431 45.508 Q 136.087 46.191 133.353 46.094 L 132.523 46.094 Q 132.181 46.094 131.693 45.703 Q 130.716 46.191 129.105 46.045 Q 127.494 45.898 126.42 46.387 Q 125.052 45.898 123.246 45.898 Q 121.439 45.898 120.072 45.41 Q 118.314 47.949 116.752 50.732 Q 115.189 53.516 114.017 56.641 Q 118.021 57.227 120.658 57.129 Q 123.295 57.031 125.638 56.738 Q 127.982 56.445 130.472 56.152 Q 132.962 55.859 136.576 55.957 Q 139.017 54.785 142.191 54.346 Q 145.365 53.906 148.099 53.027 Q 149.076 53.32 149.759 54.15 Q 150.443 54.98 151.078 55.811 Q 151.712 56.641 152.396 57.227 Q 153.08 57.813 154.154 57.617 Q 154.642 58.105 154.789 58.789 Q 154.935 59.473 155.082 60.059 Q 155.228 60.645 155.521 60.986 Q 155.814 61.328 156.595 61.23 Q 154.74 65.039 152.445 67.09 Q 150.15 69.141 147.269 70.264 Q 144.388 71.387 140.824 71.924 Q 137.259 72.461 132.865 73.242 Q 131.791 73.438 131.058 73.193 Q 130.326 72.949 129.545 72.949 Q 126.81 73.438 123.05 73.926 Q 119.291 74.414 115.482 74.316 Q 111.673 74.219 108.158 73.34 Q 104.642 72.461 102.298 70.215 Z" vector-effect="non-scaling-stroke"/></g></svg>
      </g>
</svg>
